<svg xmlns="http://www.w3.org/2000/svg" aria-hidden="true" 
style="position:absolute;width:0;height:0;overflow:hidden">
  <defs>
    <symbol id="icon-instagram" viewBox="0 0 32 32">
      <path fill="#c6bbb5" d="M16 0C7.163 0 0 7.163 0 16s7.163 16 16 16 16-7.163 16-16S24.837 0 16 0zm-3.518 7.518c.91-.041 1.201-.052 3.519-.052h-.003c2.318 0 2.608.01 3.518.052.908.042 1.529.185 2.073.396.562.218 1.037.509 1.511.984s.766.95.985 1.512c.21.543.354 1.163.396 2.071.041.91.052 1.201.052 3.519s-.011 2.608-.052 3.518c-.043.908-.187 1.528-.396 2.071-.219.561-.51 1.037-.985 1.512s-.95.767-1.511.985c-.543.211-1.164.355-2.072.396-.91.041-1.2.052-3.518.052s-2.608-.01-3.518-.052c-.908-.042-1.529-.186-2.072-.396-.561-.218-1.037-.51-1.511-.985s-.766-.95-.984-1.512c-.211-.543-.355-1.163-.396-2.071-.041-.91-.052-1.2-.052-3.518s.011-2.609.051-3.519c.041-.908.185-1.528.396-2.071.219-.561.51-1.037.985-1.512s.95-.766 1.512-.984c.543-.211 1.163-.355 2.071-.396z" style="fill:var(--color1, #c6bbb5)"/>
      <path fill="#c6bbb5" d="M15.236 9.005H16.001c2.278 0 2.549.008 3.448.049.832.038 1.284.177 1.584.294.398.155.682.34.981.638s.484.583.639.981c.117.3.256.752.294 1.584.041.9.05 1.17.05 3.447s-.009 2.548-.05 3.447c-.038.832-.177 1.284-.294 1.584-.155.398-.34.682-.639.98s-.582.483-.981.638c-.3.117-.752.256-1.584.294-.9.041-1.17.05-3.448.05s-2.549-.009-3.448-.05c-.832-.038-1.284-.177-1.585-.294-.398-.155-.683-.34-.981-.638s-.484-.582-.639-.981c-.117-.3-.256-.752-.294-1.584-.041-.9-.049-1.17-.049-3.449s.008-2.548.049-3.447c.038-.832.177-1.284.294-1.584.155-.398.34-.683.639-.981s.583-.484.981-.639c.301-.117.753-.256 1.585-.294.787-.036 1.092-.046 2.683-.048v.002zm5.321 1.416a1.024 1.024 0 1 0 0 2.048 1.024 1.024 0 0 0 0-2.048zM11.619 16a4.382 4.382 0 1 1 8.762 0 4.382 4.382 0 0 1-8.761 0z" style="fill:var(--color1, #c6bbb5)"/>
      <path fill="#c6bbb5" d="M16.001 13.156a2.844 2.844 0 1 1 .001 5.689 2.844 2.844 0 0 1-.001-5.689z" style="fill:var(--color1, #c6bbb5)"/>
    </symbol>
    <symbol id="icon-facebook" viewBox="0 0 32 32">
      <path fill="#c6bbb5" d="M16 0C7.163 0 0 7.163 0 16s7.163 16 16 16 16-7.163 16-16S24.837 0 16 0zm1.669 16.703v8.705h-3.602v-8.705h-1.799v-3h1.799v-1.801C14.067 9.455 15.083 8 17.97 8h2.403v3h-1.502c-1.124 0-1.198.419-1.198 1.202l-.004 1.501h2.721l-.319 3h-2.403z" style="fill:var(--color1, #c6bbb5)"/>
    </symbol>
    <symbol id="icon-youtube" viewBox="0 0 32 32">
      <path fill="#c6bbb5" d="M16 0C7.163 0 0 7.163 0 16s7.163 16 16 16 16-7.163 16-16S24.837 0 16 0zm6.668 10.5a2.166 2.166 0 0 1 1.509 1.549c.357 1.367.357 4.218.357 4.218s0 2.851-.357 4.218a2.166 2.166 0 0 1-1.509 1.549C21.337 22.4 16 22.4 16 22.4s-5.337 0-6.668-.366a2.167 2.167 0 0 1-1.509-1.549c-.357-1.367-.357-4.218-.357-4.218s0-2.851.357-4.218A2.166 2.166 0 0 1 9.332 10.5c1.331-.366 6.668-.366 6.668-.366s5.337 0 6.668.366z" style="fill:var(--color1, #c6bbb5)"/>
      <path fill="#c6bbb5" d="M14.4 19.2v-5.333l4.267 2.667L14.4 19.2z" style="fill:var(--color1, #c6bbb5)"/>
    </symbol>
  </defs>
</svg>