<svg xmlns="http://www.w3.org/2000/svg" aria-hidden="true" 
style="position:absolute;width:0;height:0;overflow:hidden">
  <defs>
    <symbol id="icon-instagram" viewBox="0 0 32 32">
      <path fill="#c6bbb5" d="M16 0C7.163 0 0 7.163 0 16s7.163 16 16 16 16-7.163 16-16S24.837 0 16 0zm-3.518 7.518c.91-.041 1.201-.052 3.519-.052h-.003c2.318 0 2.608.01 3.518.052.908.042 1.529.185 2.073.396.562.218 1.037.509 1.511.984s.766.95.985 1.512c.21.543.354 1.163.396 2.071.041.91.052 1.201.052 3.519s-.011 2.608-.052 3.518c-.043.908-.187 1.528-.396 2.071-.219.561-.51 1.037-.985 1.512s-.95.767-1.511.985c-.543.211-1.164.355-2.072.396-.91.041-1.2.052-3.518.052s-2.608-.01-3.518-.052c-.908-.042-1.529-.186-2.072-.396-.561-.218-1.037-.51-1.511-.985s-.766-.95-.984-1.512c-.211-.543-.355-1.163-.396-2.071-.041-.91-.052-1.2-.052-3.518s.011-2.609.051-3.519c.041-.908.185-1.528.396-2.071.219-.561.51-1.037.985-1.512s.95-.766 1.512-.984c.543-.211 1.163-.355 2.071-.396z" style="fill:var(--color1, #c6bbb5)"/>
      <path fill="#c6bbb5" d="M15.236 9.005H16.001c2.278 0 2.549.008 3.448.049.832.038 1.284.177 1.584.294.398.155.682.34.981.638s.484.583.639.981c.117.3.256.752.294 1.584.041.9.05 1.17.05 3.447s-.009 2.548-.05 3.447c-.038.832-.177 1.284-.294 1.584-.155.398-.34.682-.639.98s-.582.483-.981.638c-.3.117-.752.256-1.584.294-.9.041-1.17.05-3.448.05s-2.549-.009-3.448-.05c-.832-.038-1.284-.177-1.585-.294-.398-.155-.683-.34-.981-.638s-.484-.582-.639-.981c-.117-.3-.256-.752-.294-1.584-.041-.9-.049-1.17-.049-3.449s.008-2.548.049-3.447c.038-.832.177-1.284.294-1.584.155-.398.34-.683.639-.981s.583-.484.981-.639c.301-.117.753-.256 1.585-.294.787-.036 1.092-.046 2.683-.048v.002zm5.321 1.416a1.024 1.024 0 1 0 0 2.048 1.024 1.024 0 0 0 0-2.048zM11.619 16a4.382 4.382 0 1 1 8.762 0 4.382 4.382 0 0 1-8.761 0z" style="fill:var(--color1, #c6bbb5)"/>
      <path fill="#c6bbb5" d="M16.001 13.156a2.844 2.844 0 1 1 .001 5.689 2.844 2.844 0 0 1-.001-5.689z" style="fill:var(--color1, #c6bbb5)"/>
    </symbol>
    <symbol id="icon-facebook" viewBox="0 0 32 32">
      <path fill="#c6bbb5" d="M16 0C7.163 0 0 7.163 0 16s7.163 16 16 16 16-7.163 16-16S24.837 0 16 0zm1.669 16.703v8.705h-3.602v-8.705h-1.799v-3h1.799v-1.801C14.067 9.455 15.083 8 17.97 8h2.403v3h-1.502c-1.124 0-1.198.419-1.198 1.202l-.004 1.501h2.721l-.319 3h-2.403z" style="fill:var(--color1, #c6bbb5)"/>
    </symbol>
    <symbol id="icon-youtube" viewBox="0 0 32 32">
      <path fill="#c6bbb5" d="M16 0C7.163 0 0 7.163 0 16s7.163 16 16 16 16-7.163 16-16S24.837 0 16 0zm6.668 10.5a2.166 2.166 0 0 1 1.509 1.549c.357 1.367.357 4.218.357 4.218s0 2.851-.357 4.218a2.166 2.166 0 0 1-1.509 1.549C21.337 22.4 16 22.4 16 22.4s-5.337 0-6.668-.366a2.167 2.167 0 0 1-1.509-1.549c-.357-1.367-.357-4.218-.357-4.218s0-2.851.357-4.218A2.166 2.166 0 0 1 9.332 10.5c1.331-.366 6.668-.366 6.668-.366s5.337 0 6.668.366z" style="fill:var(--color1, #c6bbb5)"/>
      <path fill="#c6bbb5" d="M14.4 19.2v-5.333l4.267 2.667L14.4 19.2z" style="fill:var(--color1, #c6bbb5)"/>
    </symbol>
    <defs>
      <symbol id="icon-sign" viewBox="0 0 146 32">
        <path fill="none" stroke="#f9f6ef" stroke-linecap="round" stroke-width="1.846" d="M18.01 24.099c3.528-7.069 8.569-13.889 13.234-20.725M10.933 8.603a20.75 20.75 0 0 1-3.02.182c-.349-.005.496-.293.795-.4 3.133-1.115 6.509-1.98 9.906-2.778 5.541-1.301 11.23-2.583 17.069-3.345 2.888-.377 5.822-.595 8.763-.771 2.245-.135 4.575-.321 6.838-.24 2.662.095 1.974 1.273.767 2.293-1.834 1.551-4.327 2.85-6.821 4.025-3.898 1.837-8.112 3.48-12.36 5.027-1.302.474-2.635.91-3.991 1.318m.002 0c-3.101.933-6.322 1.722-9.565 2.494-2.406.572-9.631 2.272-7.27 1.639 3.993-1.07 8.004-2.125 12.09-3.069 1.575-.364 3.157-.719 4.744-1.065zm0 0a349.953 349.953 0 0 1 14.63-2.87c6.107-1.06 12.309-2.025 18.659-2.421 1.392-.087 2.772-.144 4.167-.053.754.049 2.053.063 2.599.444.677.472.271 1.097-.187 1.558-1.683 1.699-4.274 2.953-6.931 4.106-6.595 2.864-13.895 5.351-21.237 7.496a263.668 263.668 0 0 1-23.123 5.651c-4.472.876-9.042 1.59-13.483 2.519-.879.184-1.791.424-2.744.424M48.965 9.66c-2.003 1.01-3.44 3.345-4.753 5.091a94.512 94.512 0 0 0-3.294 4.694c-.206.311-.975 1.161-.927 1.583.011.097.253.092.263.091 1.073-.125 2.21-.641 3.19-1.029 2.936-1.161 5.587-2.716 8.199-4.488 2.766-1.876 5.376-3.935 7.954-6.061.213-.176 2.452-2.379 2.664-1.276.328 1.703-1.058 3.94-1.803 5.321-1.388 2.575-3.17 4.864-4.795 7.281-.632.94-1.591 2.207-1.661 3.396-.094 1.593 2.544.453 3.252.188 3.303-1.234 6.071-4.051 8.642-6.361 2.297-2.063 4.503-4.21 6.67-6.409.75-.761 1.484-1.563 2.332-2.218.851-.658-1.324 1.701-1.958 2.574-2.601 3.579-5.324 7.412-6.888 11.602-.308.827-.028.579.515.098l.028-.025c2.112-1.869 3.858-4.101 5.681-6.246 2.433-2.863 4.94-6.04 7.833-8.47.569-.478-.16 1.164-.187 1.227-.959 2.245-2.441 4.334-3.771 6.367-.747 1.143-2.879 3.24-1.342 4.589.917.805 2.089.674 3.2.464 3.074-.581 5.838-2.482 8.549-3.947 7.7-4.162 15.766-6.767 24.421-8 5.495-.782 11.046-1.133 16.581-1.483l.319-.02c5.595-.354 11.162-.895 16.737-1.486" style="stroke:var(--color1, #f9f6ef)"/>
      </symbol>
    </defs>
  </svg>